HIERARCHY
ROOT Hips
{
  OFFSET 0 0 0
  CHANNELS 6 Xposition Yposition Zposition Zrotation Yrotation Xrotation
  JOINT LeftThigh
  {
    OFFSET 8.409438 0 -5.917753
    CHANNELS 3 Zrotation Yrotation Xrotation
    JOINT LeftLeg
    {
      OFFSET 0 0 -42.358652
      CHANNELS 3 Zrotation Yrotation Xrotation
      JOINT LeftFoot
      {
        OFFSET 0 0 -39.357303
        CHANNELS 3 Zrotation Yrotation Xrotation
      }
    }
  }
  JOINT RightThigh
  {
    OFFSET -8.409438 0 -5.917753
    CHANNELS 3 Zrotation Yrotation Xrotation
    JOINT RightLeg
    {
      OFFSET 0 0 -42.358652
      CHANNELS 3 Zrotation Yrotation Xrotation
      JOINT RightFoot
      {
        OFFSET 0 0 -39.357303
        CHANNELS 3 Zrotation Yrotation Xrotation
      }
    }
  }
  JOINT SpineLow
  {
    OFFSET 0 0 4.719101
    CHANNELS 3 Zrotation Yrotation Xrotation
    JOINT SpineMid
    {
      OFFSET 0 0 12.899191
      CHANNELS 3 Zrotation Yrotation Xrotation
      JOINT Chest
      {
        OFFSET 0 0 12.899191
        CHANNELS 3 Zrotation Yrotation Xrotation
        JOINT LeftShoulder
        {
          OFFSET 7.550562 1.41573 9.438202
          CHANNELS 3 Zrotation Yrotation Xrotation
          JOINT LeftArm
          {
            OFFSET 9.155056 0 4.247191
            CHANNELS 3 Zrotation Yrotation Xrotation
            JOINT LeftForearm
            {
              OFFSET 0 0 25.771955
              CHANNELS 3 Zrotation Yrotation Xrotation
              JOINT LeftHand
              {
                OFFSET 0 0 25.197169
                CHANNELS 3 Zrotation Yrotation Xrotation
              }
            }
          }
        }
        JOINT RightShoulder
        {
          OFFSET -7.550562 1.41573 9.438202
          CHANNELS 3 Zrotation Yrotation Xrotation
          JOINT RightArm
          {
            OFFSET -9.155056 0 4.247191
            CHANNELS 3 Zrotation Yrotation Xrotation
            JOINT RightForearm
            {
              OFFSET 0 0 -25.771955
              CHANNELS 3 Zrotation Yrotation Xrotation
              JOINT RightHand
              {
                OFFSET 0 0 -25.197169
                CHANNELS 3 Zrotation Yrotation Xrotation
              }
            }
          }
        }
        JOINT Neck
        {
          OFFSET 0 0 15.101124
          CHANNELS 3 Zrotation Yrotation Xrotation
          JOINT Head
          {
            OFFSET 0 0 11.325843
            CHANNELS 3 Zrotation Yrotation Xrotation
            End Site
            {
              OFFSET 0 0 14.157303
            }
          }
        }
      }
    }
  }
}
MOTION
Frames: 13
Frame Time: 0.0
0.0  93.25843  0.0  -4.449697  12.358806  -89.862642  5.439514  -20.706025  -8.35888  -13.092439  4.383996  16.891199  8.167203  1.962108  4.910689  -22.352582  2.276219  -4.958641  -9.286619  7.46376  10.831173  5.344724  2.467729  0.679208  2.416523  -1.90225  -0.417416  6.650431  -5.151667  -1.332413  6.65043  -5.151667  -1.332413  -11.373889  30.599082  -4.741615  146.018227  28.844702  -162.435643  -17.342488  9.389307  103.887802  73.501767  2.935641  1.323237  1.013249  -2.46827  16.146592  -9.567947  80.799994  -60.771788  -42.288053  4.150995  -117.080621  78.02974  6.436559  14.224122  -19.80614  8.580895  10.22573  -14.975953  6.114416  7.944775  
0.0  93.25843  0.0  -4.23352  11.588328  -89.413482  5.339228  -20.250181  -7.91213  -12.651673  3.785334  16.121071  8.516673  1.946129  4.915583  -21.645326  2.15073  -5.406359  -9.65039  7.570646  10.781473  5.581381  2.497205  0.598797  2.766386  -1.735314  -0.481715  7.607667  -4.680783  -1.515673  7.607667  -4.680783  -1.515673  -10.044127  29.770724  -3.999779  149.549395  27.902202  -165.980929  -18.266245  12.125911  103.497639  71.308146  1.989138  -0.320181  0.851855  -2.504435  14.592001  -41.316725  82.770909  -92.907554  -47.379729  8.674329  -115.251015  80.585774  3.322571  18.119069  -20.204457  8.195306  10.476733  -15.273806  5.810111  8.127259  
0.0  93.25843  0.0  -3.863009  10.271608  -89.046991  4.430861  -19.332004  -7.677644  -11.906674  2.975872  15.501481  9.026828  1.980906  4.960177  -20.771637  2.192674  -5.933399  -9.809442  7.700492  10.786598  6.216219  2.637177  0.594131  3.059775  -1.564254  -0.537535  8.408386  -4.199571  -1.666574  8.408386  -4.199571  -1.666574  -7.903799  29.076287  -2.635927  152.740865  26.907021  -169.404138  -20.139171  15.508261  102.668599  68.750346  1.31248  -1.155704  1.282147  -2.338986  13.182096  -77.301666  81.761332  -129.428691  -51.839181  13.941318  -113.22661  82.479957  -0.391938  21.995259  -20.237866  7.964085  10.741598  -15.299999  5.62714  8.319276  
0.0  93.25843  0.0  -3.482246  8.594525  -88.69102  4.839693  -18.720654  -6.96117  -11.172604  2.346954  14.694023  9.591046  2.129426  5.021786  -19.943228  2.253548  -6.514031  -9.818392  7.808711  10.76142  6.45662  2.638155  0.548958  3.429035  -1.35039  -0.582165  9.41345  -3.599853  -1.780596  9.413451  -3.599853  -1.780595  -6.690509  28.239713  -0.976994  156.094538  25.954819  -172.204503  -22.883687  19.745408  101.286523  67.180768  2.160031  -0.633965  1.313522  -2.420759  11.382028  -101.077993  78.789892  -153.819691  -55.682093  19.94048  -110.767085  83.38846  -4.425493  25.87905  -20.279181  7.557411  11.077675  -15.33069  5.309814  8.559447  
0.0  93.25843  0.0  -3.207282  6.666275  -88.255887  5.200224  -18.227968  -6.45134  -10.565986  1.746536  13.770884  10.71055  2.370004  5.553175  -19.299634  2.248123  -7.232813  -9.525945  7.845624  10.759186  7.095501  2.806498  0.588576  3.799766  -1.121571  -0.644171  10.421767  -2.955643  -1.932982  10.421767  -2.955643  -1.932982  -6.302255  27.25703  0.468022  159.923032  24.795301  -174.47451  -25.60951  23.497893  99.546084  66.491067  3.664247  0.556656  1.460203  -2.564512  9.443682  -115.375454  74.769488  -168.56541  -59.245732  24.103468  -107.771532  85.472772  -8.377251  28.793741  -20.110992  7.070689  11.496985  -15.20383  4.933348  8.856891  
0.0  93.25843  0.0  -3.162641  4.606921  -87.78785  5.656614  -17.967302  -6.028223  -9.621289  1.267997  13.16015  11.341458  2.538331  5.75239  -18.960837  2.101336  -7.94835  -9.052341  7.712043  10.701079  7.352939  2.795253  0.598462  4.154824  -0.940068  -0.734319  11.388935  -2.434646  -2.162517  11.388934  -2.434645  -2.162517  -5.876045  26.285283  2.02245  163.437317  23.361425  -176.312036  -27.437469  26.099075  98.116313  65.896216  4.801598  1.031576  1.886392  -2.263507  7.445027  -125.978391  70.39173  -179.104269  -62.458299  30.465487  -103.845156  85.052036  -11.866181  32.561646  -19.935817  6.731176  11.893988  -15.072734  4.668588  9.142232  
0.0  93.25843  0.0  -3.299331  2.445961  -87.355829  6.216262  -17.967709  -5.664809  -8.658139  0.93148  12.660832  11.831922  2.67776  5.904527  -18.604626  1.79697  -8.538077  -7.938501  7.658153  10.724431  7.162626  2.717748  0.518218  4.463484  -0.776104  -0.86188  12.229695  -1.954067  -2.490249  12.229694  -1.954067  -2.49025  -4.08998  24.592956  3.894684  165.678912  21.121946  -178.080713  -28.904777  28.623122  97.220283  64.557325  2.484771  -0.995039  2.618372  -1.67374  5.767769  -133.598336  65.801844  173.668936  -65.163848  36.611062  -99.451652  84.685585  -14.713884  35.435185  -19.354369  6.392838  12.46072  -14.638556  4.407583  9.550387  
0.0  93.25843  0.0  -3.706435  0.766156  -86.482493  6.303371  -18.114439  -5.864015  -7.553883  0.561645  12.274725  12.237016  2.765838  6.044247  -19.054604  1.010225  -9.48105  -7.106889  7.520829  10.588981  7.40112  2.675662  0.538807  4.727254  -0.589776  -1.111693  12.947238  -1.387913  -3.140791  12.947238  -1.387914  -3.14079  -1.564115  22.396202  5.947893  166.568385  18.467794  -179.737347  -30.920554  31.645468  96.111223  63.028434  0.797998  1.841421  2.921704  -1.187935  4.578352  -137.529415  61.544297  170.53256  -66.858251  41.988164  -95.243714  84.10476  -16.003559  36.517973  -19.047417  5.847449  13.117587  -14.406772  3.983593  10.023989  
0.0  93.25843  0.0  -4.342246  -1.163529  -85.931158  6.818061  -18.52813  -5.803255  -6.519478  0.232442  11.944966  12.607429  2.825634  6.206426  -19.188082  0.151488  -10.010534  -5.641312  7.336779  10.626757  7.047791  2.566983  0.424947  5.142204  -0.48636  -1.332764  14.078701  -1.039617  -3.727456  14.078701  -1.039617  -3.727456  -0.634025  21.11063  7.332544  167.711625  15.891965  179.170675  -34.995003  35.424497  93.057191  63.162262  -3.028963  2.582683  2.74105  -0.768251  3.938581  -139.830192  57.507961  169.666178  -66.904222  45.484122  -91.083178  83.443554  -17.289644  36.246596  -19.06683  5.322508  13.798535  -14.41891  3.567644  10.52007  
0.0  93.25843  0.0  -4.507761  -2.187193  -85.57375  6.668247  -18.579785  -5.550771  -5.657559  -0.042569  11.577263  12.81887  2.876777  6.304616  -20.219152  -0.206673  -10.433669  -4.678725  7.066558  10.465723  7.162017  2.512335  0.432771  5.445579  -0.345647  -1.487772  14.900137  -0.605166  -4.120684  14.900136  -0.605166  -4.120684  -0.422983  20.535958  8.591204  169.311518  13.65735  179.01355  -35.292425  37.727528  91.845846  62.53463  -8.159756  2.724774  2.390336  -0.642067  4.025297  -139.765518  53.682513  171.27221  -64.971093  46.131155  -87.021047  81.93053  -18.11567  35.912702  -19.435581  4.808948  14.267936  -14.690032  3.158678  10.860955  
0.0  93.25843  0.0  -4.046122  -2.779794  -85.328889  6.436671  -18.042958  -5.249469  -4.745336  -0.321365  11.409784  12.614557  2.92849  6.161253  -21.468139  0.083948  -10.931137  -4.069663  6.688145  10.218607  7.0721  2.497416  0.396134  5.648647  -0.234271  -1.501246  15.447808  -0.286873  -4.13236  15.447807  -0.286873  -4.13236  -0.186674  20.82699  9.078316  170.631675  12.065562  179.50628  -35.359043  39.484645  92.55889  62.145359  -10.632159  2.552035  2.092958  -0.295069  4.629632  -138.092242  50.344979  173.916259  -62.406876  44.524019  -84.134828  80.903218  -18.085705  36.719188  -19.194416  4.593466  14.402608  -14.506032  2.998095  10.953533  
0.0  93.25843  0.0  -3.599746  -3.181874  -85.363203  6.371633  -17.59006  -4.894035  -4.342391  -0.494905  11.160093  12.616553  2.958381  6.212835  -22.374587  0.541473  -11.077077  -3.596403  6.37202  9.923778  7.086124  2.453887  0.425482  5.732557  -0.182408  -1.426357  15.67389  -0.158512  -3.91675  15.673889  -0.158511  -3.91675  0.597548  21.317316  8.748778  171.279774  10.656266  -179.863723  -34.548839  39.894294  94.36651  62.411945  -10.535329  2.333064  2.323031  -0.134762  5.277493  -136.295836  47.709371  176.235857  -60.693983  42.751402  -82.831492  80.495632  -18.100802  38.212091  -19.027871  4.748257  14.183286  -14.382251  3.125082  10.79192  
0.0  93.25843  0.0  -3.632517  -3.984951  -85.500516  7.205168  -17.600437  -4.657903  -4.155549  -0.59333  11.082393  12.414803  2.991399  6.110095  -22.019723  0.740285  -10.828591  -3.647549  6.114045  9.561861  6.736687  2.340436  0.409805  5.819501  -0.222209  -1.355981  15.913825  -0.27825  -3.735097  15.913825  -0.27825  -3.735097  1.33048  22.014559  7.560054  171.653029  9.544915  -179.618045  -34.132641  39.403994  95.745014  63.549447  -9.552615  2.850656  2.919434  0.529055  4.940079  -135.07168  46.913481  177.608843  -59.99229  42.114171  -82.253572  80.741605  -18.337372  38.773817  -18.608198  5.002863  13.981611  -14.070625  3.332113  10.643909  
